<svg width="25" height="24" viewBox="0 0 25 24" fill="none" xmlns="http://www.w3.org/2000/svg">
<g id="vuesax/outline/call">
<g id="call">
<path id="Vector" d="M18.1166 22.75C16.9866 22.75 15.7966 22.48 14.5666 21.96C13.3666 21.45 12.1566 20.75 10.9766 19.9C9.80663 19.04 8.67663 18.08 7.60663 17.03C6.54663 15.96 5.58663 14.83 4.73663 13.67C3.87663 12.47 3.18663 11.27 2.69663 10.11C2.17663 8.87 1.91663 7.67 1.91663 6.54C1.91663 5.76 2.05663 5.02 2.32663 4.33C2.60663 3.62 3.05663 2.96 3.66663 2.39C4.43663 1.63 5.31663 1.25 6.25663 1.25C6.64663 1.25 7.04663 1.34 7.38663 1.5C7.77663 1.68 8.10663 1.95 8.34663 2.31L10.6666 5.58C10.8766 5.87 11.0366 6.15 11.1466 6.43C11.2766 6.73 11.3466 7.03 11.3466 7.32C11.3466 7.7 11.2366 8.07 11.0266 8.42C10.8766 8.69 10.6466 8.98 10.3566 9.27L9.67663 9.98C9.68663 10.01 9.69663 10.03 9.70663 10.05C9.82663 10.26 10.0666 10.62 10.5266 11.16C11.0166 11.72 11.4766 12.23 11.9366 12.7C12.5266 13.28 13.0166 13.74 13.4766 14.12C14.0466 14.6 14.4166 14.84 14.6366 14.95L14.6166 15L15.3466 14.28C15.6566 13.97 15.9566 13.74 16.2466 13.59C16.7966 13.25 17.4966 13.19 18.1966 13.48C18.4566 13.59 18.7366 13.74 19.0366 13.95L22.3566 16.31C22.7266 16.56 22.9966 16.88 23.1566 17.26C23.3066 17.64 23.3766 17.99 23.3766 18.34C23.3766 18.82 23.2666 19.3 23.0566 19.75C22.8466 20.2 22.5866 20.59 22.2566 20.95C21.6866 21.58 21.0666 22.03 20.3466 22.32C19.6566 22.6 18.9066 22.75 18.1166 22.75ZM6.25663 2.75C5.70663 2.75 5.19663 2.99 4.70663 3.47C4.24663 3.9 3.92663 4.37 3.72663 4.88C3.51663 5.4 3.41663 5.95 3.41663 6.54C3.41663 7.47 3.63663 8.48 4.07663 9.52C4.52663 10.58 5.15663 11.68 5.95663 12.78C6.75663 13.88 7.66663 14.95 8.66663 15.96C9.66663 16.95 10.7466 17.87 11.8566 18.68C12.9366 19.47 14.0466 20.11 15.1466 20.57C16.8566 21.3 18.4566 21.47 19.7766 20.92C20.2866 20.71 20.7366 20.39 21.1466 19.93C21.3766 19.68 21.5566 19.41 21.7066 19.09C21.8266 18.84 21.8866 18.58 21.8866 18.32C21.8866 18.16 21.8566 18 21.7766 17.82C21.7466 17.76 21.6866 17.65 21.4966 17.52L18.1766 15.16C17.9766 15.02 17.7966 14.92 17.6266 14.85C17.4066 14.76 17.3166 14.67 16.9766 14.88C16.7766 14.98 16.5966 15.13 16.3966 15.33L15.6366 16.08C15.2466 16.46 14.6466 16.55 14.1866 16.38L13.9166 16.26C13.5066 16.04 13.0266 15.7 12.4966 15.25C12.0166 14.84 11.4966 14.36 10.8666 13.74C10.3766 13.24 9.88663 12.71 9.37663 12.12C8.90663 11.57 8.56663 11.1 8.35663 10.71L8.23663 10.41C8.17663 10.18 8.15663 10.05 8.15663 9.91C8.15663 9.55 8.28663 9.23 8.53663 8.98L9.28663 8.2C9.48663 8 9.63663 7.81 9.73663 7.64C9.81663 7.51 9.84663 7.4 9.84663 7.3C9.84663 7.22 9.81663 7.1 9.76663 6.98C9.69663 6.82 9.58663 6.64 9.44663 6.45L7.12663 3.17C7.02663 3.03 6.90663 2.93 6.75663 2.86C6.59663 2.79 6.42663 2.75 6.25663 2.75ZM14.6166 15.01L14.4566 15.69L14.7266 14.99C14.6766 14.98 14.6366 14.99 14.6166 15.01Z" fill="black"/>
</g>
</g>
</svg>
