<svg width="25" height="24" viewBox="0 0 25 24" fill="none" xmlns="http://www.w3.org/2000/svg">
<g id="vuesax/outline/location">
<g id="location">
<path id="Vector" d="M12.6666 14.1704C10.5366 14.1704 8.79663 12.4404 8.79663 10.3004C8.79663 8.16043 10.5366 6.44043 12.6666 6.44043C14.7966 6.44043 16.5366 8.17043 16.5366 10.3104C16.5366 12.4504 14.7966 14.1704 12.6666 14.1704ZM12.6666 7.94043C11.3666 7.94043 10.2966 9.00043 10.2966 10.3104C10.2966 11.6204 11.3566 12.6804 12.6666 12.6804C13.9766 12.6804 15.0366 11.6204 15.0366 10.3104C15.0366 9.00043 13.9666 7.94043 12.6666 7.94043Z" fill="black"/>
<path id="Vector_2" d="M12.6667 22.76C11.1867 22.76 9.69668 22.2 8.53668 21.09C5.58668 18.25 2.32668 13.72 3.55668 8.33C4.66668 3.44 8.93668 1.25 12.6667 1.25C12.6667 1.25 12.6667 1.25 12.6767 1.25C16.4067 1.25 20.6767 3.44 21.7867 8.34C23.0067 13.73 19.7467 18.25 16.7967 21.09C15.6367 22.2 14.1467 22.76 12.6667 22.76ZM12.6667 2.75C9.75668 2.75 6.01668 4.3 5.02668 8.66C3.94668 13.37 6.90668 17.43 9.58668 20C11.3167 21.67 14.0267 21.67 15.7567 20C18.4267 17.43 21.3867 13.37 20.3267 8.66C19.3267 4.3 15.5767 2.75 12.6667 2.75Z" fill="black"/>
</g>
</g>
</svg>
