<svg width="56" height="56" viewBox="0 0 56 56" fill="none" xmlns="http://www.w3.org/2000/svg">
<g id="vuesax/outline/message-question">
<g id="message-question">
<path id="Vector" d="M18.667 52.0799C18.0137 52.0799 17.337 51.9167 16.7303 51.59C15.4003 50.89 14.5837 49.4899 14.5837 47.9966V44.6834C7.53699 43.9601 2.91699 38.7799 2.91699 31.3599V17.36C2.91699 9.33336 8.30699 3.94336 16.3337 3.94336H39.667C47.6937 3.94336 53.0837 9.33336 53.0837 17.36V31.3599C53.0837 39.3866 47.6937 44.7766 39.667 44.7766H30.8703L20.9303 51.4034C20.2536 51.8468 19.4603 52.0799 18.667 52.0799ZM16.3337 7.42C10.3137 7.42 6.41699 11.3167 6.41699 17.3367V31.3368C6.41699 37.3568 10.3137 41.2535 16.3337 41.2535C17.2903 41.2535 18.0837 42.0468 18.0837 43.0035V47.9735C18.0837 48.2768 18.2703 48.4168 18.387 48.4868C18.5037 48.5568 18.737 48.6267 18.9937 48.4634L29.3771 41.5568C29.6571 41.3702 30.007 41.2535 30.357 41.2535H39.6903C45.7103 41.2535 49.607 37.3568 49.607 31.3368V17.3367C49.607 11.3167 45.7103 7.42 39.6903 7.42H16.3337Z" fill="black"/>
<path id="Vector_2" d="M27.9992 28.2568C27.0426 28.2568 26.2492 27.4635 26.2492 26.5068V26.0169C26.2492 23.3103 28.2325 21.9802 28.9792 21.4669C29.8425 20.8836 30.1225 20.4869 30.1225 19.8802C30.1225 18.7136 29.1659 17.7568 27.9992 17.7568C26.8326 17.7568 25.876 18.7136 25.876 19.8802C25.876 20.8369 25.0826 21.6302 24.126 21.6302C23.1693 21.6302 22.376 20.8369 22.376 19.8802C22.376 16.7769 24.8959 14.2568 27.9992 14.2568C31.1026 14.2568 33.6225 16.7769 33.6225 19.8802C33.6225 22.5402 31.6626 23.8702 30.9393 24.3602C30.0293 24.9669 29.7492 25.3636 29.7492 26.0169V26.5068C29.7492 27.4868 28.9559 28.2568 27.9992 28.2568Z" fill="black"/>
<path id="Vector_3" d="M28 34.0664C27.02 34.0664 26.25 33.2731 26.25 32.3164C26.25 31.3597 27.0433 30.5664 28 30.5664C28.9567 30.5664 29.75 31.3597 29.75 32.3164C29.75 33.2731 28.98 34.0664 28 34.0664Z" fill="black"/>
</g>
</g>
</svg>
