<svg width="56" height="56" viewBox="0 0 56 56" fill="none" xmlns="http://www.w3.org/2000/svg">
<g id="vuesax/outline/people">
<g id="people">
<path id="Vector" d="M41.9994 18.4571C41.9294 18.4571 41.8828 18.4571 41.8128 18.4571H41.6961C37.2861 18.3171 33.9961 14.9104 33.9961 10.7104C33.9961 6.4171 37.4961 2.94043 41.7661 2.94043C46.0361 2.94043 49.5361 6.44043 49.5361 10.7104C49.5128 14.9338 46.2228 18.3404 42.0228 18.4804C42.0228 18.4571 42.0228 18.4571 41.9994 18.4571ZM41.7661 6.41711C39.4094 6.41711 37.4961 8.33045 37.4961 10.6871C37.4961 12.9971 39.2928 14.8638 41.6028 14.9571C41.6261 14.9338 41.8128 14.9338 42.0228 14.9571C44.2861 14.8405 46.0361 12.9738 46.0594 10.6871C46.0594 8.33045 44.1461 6.41711 41.7661 6.41711Z" fill="black"/>
<path id="Vector_2" d="M42.0235 35.6538C41.1135 35.6538 40.2035 35.5838 39.2935 35.4205C38.3368 35.2572 37.7068 34.3472 37.8702 33.3905C38.0335 32.4338 38.9435 31.8038 39.9002 31.9672C42.7702 32.4572 45.8035 31.9205 47.8335 30.5672C48.9302 29.8439 49.5135 28.9338 49.5135 28.0238C49.5135 27.1138 48.9068 26.2272 47.8335 25.5038C45.8035 24.1505 42.7235 23.6138 39.8302 24.1272C38.8735 24.3138 37.9635 23.6605 37.8002 22.7038C37.6368 21.7472 38.2668 20.8372 39.2235 20.6738C43.0268 19.9972 46.9702 20.7205 49.7702 22.5872C51.8235 23.9638 53.0135 25.9238 53.0135 28.0238C53.0135 30.1005 51.8468 32.0839 49.7702 33.4839C47.6468 34.8839 44.8935 35.6538 42.0235 35.6538Z" fill="black"/>
<path id="Vector_3" d="M13.9301 18.457C13.9068 18.457 13.8835 18.457 13.8835 18.457C9.68345 18.317 6.39345 14.9103 6.37012 10.7103C6.37012 6.41698 9.87012 2.91699 14.1401 2.91699C18.4101 2.91699 21.9101 6.417 21.9101 10.687C21.9101 14.9103 18.6201 18.317 14.4201 18.457L13.9301 16.707L14.0935 18.457C14.0468 18.457 13.9768 18.457 13.9301 18.457ZM14.1635 14.957C14.3035 14.957 14.4201 14.957 14.5601 14.9803C16.6368 14.887 18.4568 13.0203 18.4568 10.7103C18.4568 8.35365 16.5435 6.44031 14.1868 6.44031C11.8301 6.44031 9.91678 8.35365 9.91678 10.7103C9.91678 12.997 11.6901 14.8403 13.9535 14.9803C13.9768 14.957 14.0701 14.957 14.1635 14.957Z" fill="black"/>
<path id="Vector_4" d="M13.907 35.6538C11.037 35.6538 8.28366 34.8839 6.16032 33.4839C4.10699 32.1072 2.91699 30.1238 2.91699 28.0238C2.91699 25.9472 4.10699 23.9638 6.16032 22.5872C8.96032 20.7205 12.9037 19.9972 16.707 20.6738C17.6637 20.8372 18.2937 21.7472 18.1303 22.7038C17.967 23.6605 17.057 24.3138 16.1003 24.1272C13.207 23.6138 10.1503 24.1505 8.09699 25.5038C7.00033 26.2272 6.41699 27.1138 6.41699 28.0238C6.41699 28.9338 7.02366 29.8439 8.09699 30.5672C10.127 31.9205 13.1603 32.4572 16.0303 31.9672C16.987 31.8038 17.897 32.4572 18.0603 33.3905C18.2237 34.3472 17.5937 35.2572 16.637 35.4205C15.727 35.5838 14.817 35.6538 13.907 35.6538Z" fill="black"/>
<path id="Vector_5" d="M27.9994 35.8868C27.9294 35.8868 27.8828 35.8868 27.8128 35.8868H27.6961C23.2861 35.7468 19.9961 32.3401 19.9961 28.1401C19.9961 23.8468 23.4961 20.3701 27.7661 20.3701C32.0361 20.3701 35.5361 23.8701 35.5361 28.1401C35.5128 32.3635 32.2228 35.7701 28.0228 35.9101C28.0228 35.8868 28.0228 35.8868 27.9994 35.8868ZM27.7661 23.8468C25.4094 23.8468 23.4961 25.7601 23.4961 28.1168C23.4961 30.4268 25.2928 32.2935 27.6028 32.3868C27.6261 32.3635 27.8128 32.3635 28.0228 32.3868C30.2861 32.2701 32.0361 30.4035 32.0594 28.1168C32.0594 25.7835 30.1461 23.8468 27.7661 23.8468Z" fill="black"/>
<path id="Vector_6" d="M27.9997 53.1067C25.1997 53.1067 22.3997 52.3834 20.2297 50.9134C18.1763 49.5367 16.9863 47.5767 16.9863 45.4767C16.9863 43.4 18.153 41.3933 20.2297 40.0167C24.593 37.1233 31.4297 37.1233 35.7697 40.0167C37.823 41.3933 39.013 43.3534 39.013 45.4533C39.013 47.53 37.8463 49.5367 35.7697 50.9134C33.5997 52.36 30.7997 53.1067 27.9997 53.1067ZM22.1663 42.9567C21.0697 43.68 20.4863 44.59 20.4863 45.5C20.4863 46.41 21.093 47.2967 22.1663 48.02C25.3163 50.1434 30.6597 50.1434 33.8097 48.02C34.9063 47.2967 35.4897 46.3867 35.4897 45.4767C35.4897 44.5667 34.883 43.68 33.8097 42.9567C30.683 40.8334 25.3397 40.8567 22.1663 42.9567Z" fill="black"/>
</g>
</g>
</svg>
