<svg width="25" height="24" viewBox="0 0 25 24" fill="none" xmlns="http://www.w3.org/2000/svg">
<g id="vuesax/outline/sms">
<g id="sms">
<path id="Vector" d="M17.6666 21.25H7.66663C4.01663 21.25 1.91663 19.15 1.91663 15.5V8.5C1.91663 4.85 4.01663 2.75 7.66663 2.75H17.6666C21.3166 2.75 23.4166 4.85 23.4166 8.5V15.5C23.4166 19.15 21.3166 21.25 17.6666 21.25ZM7.66663 4.25C4.80663 4.25 3.41663 5.64 3.41663 8.5V15.5C3.41663 18.36 4.80663 19.75 7.66663 19.75H17.6666C20.5266 19.75 21.9166 18.36 21.9166 15.5V8.5C21.9166 5.64 20.5266 4.25 17.6666 4.25H7.66663Z" fill="black"/>
<path id="Vector_2" d="M12.6664 12.87C11.8264 12.87 10.9764 12.61 10.3264 12.08L7.1964 9.57997C6.8764 9.31997 6.81641 8.84997 7.07641 8.52997C7.33641 8.20997 7.80641 8.14997 8.12641 8.40997L11.2564 10.91C12.0164 11.52 13.3064 11.52 14.0664 10.91L17.1964 8.40997C17.5164 8.14997 17.9964 8.19997 18.2464 8.52997C18.5064 8.84997 18.4564 9.32997 18.1264 9.57997L14.9964 12.08C14.3564 12.61 13.5064 12.87 12.6664 12.87Z" fill="black"/>
</g>
</g>
</svg>
